# xmcd CD database generated by RipIT
#
# Track frame offsets:
# 150
# 14637
# 31201
# 42611
#
# Disc length: 827 seconds
#
# Revision: 0
# Processed by: cddbd v1.5.2PL0 Copyright (c) Steve Scherf et al.
# Submitted via: RipIT 3.8.0 www.suwald.com/ripit/ripit.html on 2010-07-12 at 12:18
#
DISCID=2f033904
DTITLE=Nail To Coffin - 0% Gratis
DYEAR=2002
DGENRE=
TTITLE0=Gdy Cialo Zamieniasz w Chleb
TTITLE1=De Lana Caprina
TTITLE2=Noze
TTITLE3=Sam na Sam
EXTD=Hardcore recording by a Polish band made in 2002.
EXTD=\n
EXTT0=
EXTT1=
EXTT2=
EXTT3=
PLAYORDER=
